<svg width="18" height="21" viewBox="0 0 18 21" fill="none" xmlns="http://www.w3.org/2000/svg">
<mask id="path-1-inside-1_4376_1756" fill="white">
<path d="M17 18.5294C17.5523 18.5294 18.0058 18.0803 17.9445 17.5314C17.7192 15.5116 16.8149 13.6164 15.364 12.1655C13.6761 10.4776 11.3869 9.52942 9 9.52942C6.61305 9.52942 4.32387 10.4776 2.63604 12.1655C1.18514 13.6164 0.280781 15.5116 0.0554757 17.5314C-0.00575229 18.0803 0.447715 18.5294 1 18.5294L9 18.5294H17Z"/>
</mask>
<path d="M17 18.5294C17.5523 18.5294 18.0058 18.0803 17.9445 17.5314C17.7192 15.5116 16.8149 13.6164 15.364 12.1655C13.6761 10.4776 11.3869 9.52942 9 9.52942C6.61305 9.52942 4.32387 10.4776 2.63604 12.1655C1.18514 13.6164 0.280781 15.5116 0.0554757 17.5314C-0.00575229 18.0803 0.447715 18.5294 1 18.5294L9 18.5294H17Z" stroke="#606276" stroke-width="4" mask="url(#path-1-inside-1_4376_1756)"/>
<circle cx="9.00006" cy="4.76471" r="3.76471" stroke="#606276" stroke-width="2"/>
</svg>
