<svg width="17" height="17" viewBox="0 0 17 17" fill="none" xmlns="http://www.w3.org/2000/svg">
<path d="M8.8573 4.69553C6.59924 4.69553 4.72827 6.53424 4.72827 8.82456C4.72827 11.1149 6.56698 12.9536 8.8573 12.9536C11.1476 12.9536 12.9863 11.0826 12.9863 8.82456C12.9863 6.56649 11.1154 4.69553 8.8573 4.69553ZM8.8573 11.4697C7.40569 11.4697 6.21214 10.2762 6.21214 8.82456C6.21214 7.37294 7.40569 6.1794 8.8573 6.1794C10.3089 6.1794 11.5025 7.37294 11.5025 8.82456C11.5025 10.2762 10.3089 11.4697 8.8573 11.4697Z" fill="white"/>
<path d="M13.1501 5.53427C13.6667 5.53427 14.0856 5.11544 14.0856 4.59878C14.0856 4.08213 13.6667 3.6633 13.1501 3.6633C12.6334 3.6633 12.2146 4.08213 12.2146 4.59878C12.2146 5.11544 12.6334 5.53427 13.1501 5.53427Z" fill="white"/>
<path d="M15.5669 2.17973C14.7281 1.30876 13.5346 0.857147 12.1798 0.857147H5.5346C2.72815 0.857147 0.857178 2.72811 0.857178 5.53457V12.1475C0.857178 13.5346 1.30879 14.7281 2.21202 15.5991C3.08298 16.4378 4.24427 16.8571 5.56686 16.8571H12.1475C13.5346 16.8571 14.6959 16.4055 15.5346 15.5991C16.4056 14.7604 16.8572 13.5668 16.8572 12.1797V5.53457C16.8572 4.17973 16.4056 3.01844 15.5669 2.17973ZM15.4378 12.1797C15.4378 13.1797 15.083 13.9862 14.5023 14.5346C13.9217 15.083 13.1152 15.3733 12.1475 15.3733H5.56686C4.59911 15.3733 3.79266 15.083 3.21202 14.5346C2.63137 13.9539 2.34105 13.1475 2.34105 12.1475V5.53457C2.34105 4.56682 2.63137 3.76037 3.21202 3.17973C3.7604 2.63134 4.59911 2.34102 5.56686 2.34102H12.212C13.1798 2.34102 13.9862 2.63134 14.5669 3.21199C15.1152 3.79263 15.4378 4.59908 15.4378 5.53457V12.1797Z" fill="white"/>
</svg>
