<svg width="18" height="13" viewBox="0 0 18 13" fill="none" xmlns="http://www.w3.org/2000/svg">
<path d="M17.3845 2.27735C17.19 1.55442 16.62 0.984535 15.8972 0.789871C14.5767 0.428558 9.29447 0.428558 9.29447 0.428558C9.29447 0.428558 4.01249 0.428558 2.69196 0.776172C1.98304 0.97063 1.39915 1.55452 1.20469 2.27735C0.857178 3.59777 0.857178 6.33614 0.857178 6.33614C0.857178 6.33614 0.857178 9.08832 1.20469 10.3949C1.39935 11.1178 1.96913 11.6876 2.69207 11.8823C4.02639 12.2437 9.29468 12.2437 9.29468 12.2437C9.29468 12.2437 14.5767 12.2437 15.8972 11.8961C16.6201 11.7015 17.19 11.1317 17.3847 10.4088C17.7321 9.08832 17.7321 6.35005 17.7321 6.35005C17.7321 6.35005 17.746 3.59777 17.3845 2.27735ZM7.61274 8.86595V3.80634L12.0051 6.33614L7.61274 8.86595Z" fill="white"/>
</svg>
